<svg width="169" height="32" viewBox="0 0 169 32" fill="none" xmlns="http://www.w3.org/2000/svg">
<path d="M43.6249 11.2279C44.5353 12.1495 44.5353 13.6437 43.6249 14.5653L27.0832 31.3088C26.1727 32.2304 24.6966 32.2304 23.7861 31.3088L13.3764 20.7721C12.466 19.8505 12.466 18.3563 13.3764 17.4348L29.9181 0.69118C30.8286 -0.230395 32.3047 -0.230393 33.2152 0.691182L43.6249 11.2279Z" fill="#0284C7"/>
<path d="M30.9313 11.2279C31.8417 12.1495 31.8417 13.6437 30.9313 14.5653L14.3896 31.3088C13.4791 32.2304 12.003 32.2304 11.0925 31.3088L0.682846 20.7721C-0.227616 19.8505 -0.227615 18.3563 0.682847 17.4348L17.2245 0.69118C18.135 -0.230395 19.6111 -0.230393 20.5216 0.691182L30.9313 11.2279Z" fill="#38BDF8"/>
<path d="M52.3076 22.8006V9.18613H57.413C58.4589 9.18613 59.3364 9.38113 60.0455 9.77113C60.759 10.1611 61.2975 10.6974 61.6609 11.3799C62.0287 12.0579 62.2127 12.8291 62.2127 13.6933C62.2127 14.5663 62.0287 15.3419 61.6609 16.0199C61.2931 16.698 60.7502 17.232 60.0322 17.622C59.3143 18.0076 58.4301 18.2004 57.3798 18.2004H53.9961V16.1728H57.0474C57.659 16.1728 58.1598 16.0665 58.5498 15.8538C58.9398 15.641 59.2278 15.3485 59.414 14.9763C59.6045 14.604 59.6998 14.1763 59.6998 13.6933C59.6998 13.2102 59.6045 12.7847 59.414 12.4169C59.2278 12.0491 58.9376 11.7632 58.5431 11.5594C58.1531 11.3511 57.6501 11.2469 57.0341 11.2469H54.7739V22.8006H52.3076Z" fill="#18181B"/>
<path d="M68.5562 23C67.559 23 66.6948 22.7806 65.9636 22.3419C65.2324 21.9031 64.6651 21.2893 64.2618 20.5005C63.8629 19.7116 63.6635 18.7898 63.6635 17.735C63.6635 16.6803 63.8629 15.7563 64.2618 14.963C64.6651 14.1697 65.2324 13.5537 65.9636 13.1149C66.6948 12.6762 67.559 12.4568 68.5562 12.4568C69.5533 12.4568 70.4175 12.6762 71.1488 13.1149C71.88 13.5537 72.4451 14.1697 72.8439 14.963C73.2472 15.7563 73.4489 16.6803 73.4489 17.735C73.4489 18.7898 73.2472 19.7116 72.8439 20.5005C72.4451 21.2893 71.88 21.9031 71.1488 22.3419C70.4175 22.7806 69.5533 23 68.5562 23ZM68.5695 21.0722C69.1102 21.0722 69.5622 20.9237 69.9256 20.6268C70.289 20.3254 70.5594 19.9221 70.7366 19.4169C70.9183 18.9117 71.0092 18.3488 71.0092 17.7284C71.0092 17.1035 70.9183 16.5385 70.7366 16.0332C70.5594 15.5236 70.289 15.1181 69.9256 14.8167C69.5622 14.5154 69.1102 14.3647 68.5695 14.3647C68.0155 14.3647 67.5546 14.5154 67.1868 14.8167C66.8234 15.1181 66.5508 15.5236 66.3691 16.0332C66.1918 16.5385 66.1032 17.1035 66.1032 17.7284C66.1032 18.3488 66.1918 18.9117 66.3691 19.4169C66.5508 19.9221 66.8234 20.3254 67.1868 20.6268C67.5546 20.9237 68.0155 21.0722 68.5695 21.0722Z" fill="#18181B"/>
<path d="M77.8978 16.8177V22.8006H75.4914V12.5897H77.7915V14.3248H77.9111C78.146 13.7531 78.5205 13.2988 79.0346 12.962C79.5531 12.6252 80.1935 12.4568 80.9558 12.4568C81.6604 12.4568 82.2742 12.6075 82.7972 12.9088C83.3246 13.2102 83.7323 13.6467 84.0203 14.2184C84.3128 14.7901 84.4569 15.4837 84.4524 16.2991V22.8006H82.046V16.6714C82.046 15.9889 81.8687 15.4549 81.5142 15.0693C81.1641 14.6838 80.6788 14.491 80.0583 14.491C79.6373 14.491 79.2628 14.584 78.9349 14.7702C78.6114 14.9519 78.3565 15.2156 78.1704 15.5613C77.9887 15.9069 77.8978 16.3257 77.8978 16.8177Z" fill="#18181B"/>
<path d="M91.9975 12.5897V14.4511H86.1277V12.5897H91.9975ZM87.5768 10.1434H89.9833V19.7293C89.9833 20.0529 90.0321 20.301 90.1296 20.4739C90.2315 20.6423 90.3644 20.7575 90.5284 20.8196C90.6924 20.8816 90.8741 20.9126 91.0735 20.9126C91.2242 20.9126 91.3616 20.9016 91.4857 20.8794C91.6142 20.8572 91.7117 20.8373 91.7782 20.8196L92.1837 22.7009C92.0552 22.7452 91.8712 22.7939 91.6319 22.8471C91.397 22.9003 91.109 22.9313 90.7677 22.9402C90.165 22.9579 89.6221 22.867 89.139 22.6676C88.656 22.4638 88.2726 22.1491 87.989 21.7236C87.7098 21.2982 87.5724 20.7664 87.5768 20.1282V10.1434Z" fill="#18181B"/>
<path d="M98.3544 23C97.3572 23 96.493 22.7806 95.7618 22.3419C95.0305 21.9031 94.4633 21.2893 94.06 20.5005C93.6611 19.7116 93.4617 18.7898 93.4617 17.735C93.4617 16.6803 93.6611 15.7563 94.06 14.963C94.4633 14.1697 95.0305 13.5537 95.7618 13.1149C96.493 12.6762 97.3572 12.4568 98.3544 12.4568C99.3515 12.4568 100.216 12.6762 100.947 13.1149C101.678 13.5537 102.243 14.1697 102.642 14.963C103.045 15.7563 103.247 16.6803 103.247 17.735C103.247 18.7898 103.045 19.7116 102.642 20.5005C102.243 21.2893 101.678 21.9031 100.947 22.3419C100.216 22.7806 99.3515 23 98.3544 23ZM98.3677 21.0722C98.9084 21.0722 99.3604 20.9237 99.7238 20.6268C100.087 20.3254 100.358 19.9221 100.535 19.4169C100.717 18.9117 100.807 18.3488 100.807 17.7284C100.807 17.1035 100.717 16.5385 100.535 16.0332C100.358 15.5236 100.087 15.1181 99.7238 14.8167C99.3604 14.5154 98.9084 14.3647 98.3677 14.3647C97.8137 14.3647 97.3528 14.5154 96.985 14.8167C96.6216 15.1181 96.349 15.5236 96.1673 16.0332C95.99 16.5385 95.9014 17.1035 95.9014 17.7284C95.9014 18.3488 95.99 18.9117 96.1673 19.4169C96.349 19.9221 96.6216 20.3254 96.985 20.6268C97.3528 20.9237 97.8137 21.0722 98.3677 21.0722Z" fill="#18181B"/>
<path d="M117.049 13.7797H114.563C114.492 13.372 114.361 13.0108 114.171 12.6961C113.98 12.377 113.743 12.1067 113.46 11.8851C113.176 11.6635 112.852 11.4973 112.489 11.3865C112.13 11.2713 111.742 11.2137 111.326 11.2137C110.586 11.2137 109.93 11.3998 109.358 11.7721C108.786 12.1399 108.339 12.6806 108.015 13.3941C107.692 14.1032 107.53 14.9696 107.53 15.9934C107.53 17.0348 107.692 17.9123 108.015 18.6258C108.343 19.3349 108.791 19.8712 109.358 20.2346C109.93 20.5935 110.583 20.773 111.319 20.773C111.727 20.773 112.108 20.7198 112.462 20.6135C112.821 20.5027 113.143 20.3409 113.426 20.1282C113.714 19.9155 113.956 19.654 114.151 19.3438C114.35 19.0336 114.488 18.679 114.563 18.2802L117.049 18.2934C116.956 18.9405 116.755 19.5476 116.444 20.1149C116.139 20.6822 115.737 21.183 115.241 21.6173C114.745 22.0472 114.164 22.384 113.499 22.6277C112.835 22.867 112.097 22.9867 111.286 22.9867C110.089 22.9867 109.021 22.7097 108.082 22.1557C107.142 21.6018 106.402 20.8018 105.861 19.7559C105.321 18.71 105.05 17.4558 105.05 15.9934C105.05 14.5264 105.323 13.2722 105.868 12.2308C106.413 11.1849 107.155 10.3849 108.095 9.83096C109.034 9.27699 110.098 9 111.286 9C112.044 9 112.748 9.10636 113.4 9.31909C114.051 9.53181 114.632 9.84425 115.141 10.2564C115.651 10.6641 116.07 11.1649 116.398 11.7588C116.73 12.3482 116.947 13.0218 117.049 13.7797Z" fill="#18181B"/>
<path d="M121.608 9.18613V22.8006H119.201V9.18613H121.608Z" fill="#18181B"/>
<path d="M128.536 23C127.539 23 126.675 22.7806 125.944 22.3419C125.213 21.9031 124.645 21.2893 124.242 20.5005C123.843 19.7116 123.644 18.7898 123.644 17.735C123.644 16.6803 123.843 15.7563 124.242 14.963C124.645 14.1697 125.213 13.5537 125.944 13.1149C126.675 12.6762 127.539 12.4568 128.536 12.4568C129.534 12.4568 130.398 12.6762 131.129 13.1149C131.86 13.5537 132.425 14.1697 132.824 14.963C133.228 15.7563 133.429 16.6803 133.429 17.735C133.429 18.7898 133.228 19.7116 132.824 20.5005C132.425 21.2893 131.86 21.9031 131.129 22.3419C130.398 22.7806 129.534 23 128.536 23ZM128.55 21.0722C129.09 21.0722 129.543 20.9237 129.906 20.6268C130.269 20.3254 130.54 19.9221 130.717 19.4169C130.899 18.9117 130.989 18.3488 130.989 17.7284C130.989 17.1035 130.899 16.5385 130.717 16.0332C130.54 15.5236 130.269 15.1181 129.906 14.8167C129.543 14.5154 129.09 14.3647 128.55 14.3647C127.996 14.3647 127.535 14.5154 127.167 14.8167C126.804 15.1181 126.531 15.5236 126.349 16.0332C126.172 16.5385 126.083 17.1035 126.083 17.7284C126.083 18.3488 126.172 18.9117 126.349 19.4169C126.531 19.9221 126.804 20.3254 127.167 20.6268C127.535 20.9237 127.996 21.0722 128.55 21.0722Z" fill="#18181B"/>
<path d="M141.98 18.5062V12.5897H144.386V22.8006H142.053V20.9858H141.947C141.716 21.5575 141.337 22.025 140.81 22.3884C140.287 22.7518 139.642 22.9335 138.875 22.9335C138.206 22.9335 137.614 22.7851 137.1 22.4881C136.591 22.1868 136.192 21.7502 135.904 21.1785C135.616 20.6024 135.472 19.9066 135.472 19.0912V12.5897H137.878V18.7189C137.878 19.3659 138.055 19.88 138.41 20.2612C138.764 20.6423 139.23 20.8329 139.806 20.8329C140.16 20.8329 140.504 20.7464 140.836 20.5736C141.169 20.4008 141.441 20.1437 141.654 19.8025C141.871 19.4568 141.98 19.0247 141.98 18.5062Z" fill="#18181B"/>
<path d="M150.65 22.9801C149.848 22.9801 149.13 22.774 148.496 22.3618C147.862 21.9497 147.362 21.3514 146.994 20.567C146.626 19.7825 146.442 18.8297 146.442 17.7085C146.442 16.5739 146.628 15.6167 147 14.8367C147.377 14.0522 147.885 13.4606 148.523 13.0617C149.161 12.6584 149.872 12.4568 150.657 12.4568C151.255 12.4568 151.747 12.5587 152.132 12.7626C152.518 12.962 152.824 13.2035 153.05 13.4872C153.276 13.7664 153.451 14.0301 153.575 14.2783H153.675V9.18613H156.088V22.8006H153.721V21.1918H153.575C153.451 21.44 153.271 21.7037 153.036 21.9829C152.802 22.2577 152.491 22.4926 152.106 22.6876C151.72 22.8826 151.235 22.9801 150.65 22.9801ZM151.321 21.0057C151.831 21.0057 152.265 20.8683 152.624 20.5935C152.983 20.3143 153.256 19.9266 153.442 19.4302C153.628 18.9338 153.721 18.3555 153.721 17.6952C153.721 17.0348 153.628 16.4609 153.442 15.9734C153.26 15.4859 152.99 15.107 152.631 14.8367C152.276 14.5663 151.84 14.4311 151.321 14.4311C150.785 14.4311 150.338 14.5707 149.979 14.85C149.62 15.1292 149.349 15.5147 149.168 16.0066C148.986 16.4986 148.895 17.0614 148.895 17.6952C148.895 18.3333 148.986 18.9028 149.168 19.4036C149.354 19.9 149.626 20.2922 149.985 20.5802C150.349 20.8639 150.794 21.0057 151.321 21.0057Z" fill="#18181B"/>
<path d="M161.743 16.7113V11.8053H164.17C164.444 11.8053 164.706 11.8674 164.954 11.9915C165.207 12.1111 165.411 12.2906 165.566 12.5299C165.725 12.7692 165.805 13.0639 165.805 13.4141C165.805 13.7642 165.723 14.0633 165.559 14.3115C165.395 14.5552 165.182 14.7414 164.921 14.8699C164.664 14.9984 164.393 15.0627 164.11 15.0627H162.415V14.1785H163.817C163.99 14.1785 164.15 14.1143 164.296 13.9858C164.442 13.8572 164.515 13.6667 164.515 13.4141C164.515 13.1481 164.442 12.962 164.296 12.8557C164.15 12.7493 163.997 12.6961 163.837 12.6961H162.953V16.7113H161.743ZM164.821 14.4311L165.978 16.7113H164.648L163.551 14.4311H164.821ZM163.651 19.6363C162.915 19.6363 162.226 19.4989 161.584 19.2241C160.941 18.9494 160.376 18.5682 159.889 18.0807C159.401 17.5932 159.02 17.0282 158.745 16.3856C158.47 15.743 158.333 15.0538 158.333 14.3181C158.333 13.5825 158.47 12.8933 158.745 12.2507C159.02 11.6081 159.401 11.0431 159.889 10.5556C160.376 10.0681 160.941 9.68693 161.584 9.41216C162.226 9.13739 162.915 9 163.651 9C164.387 9 165.076 9.13739 165.719 9.41216C166.361 9.68693 166.926 10.0681 167.414 10.5556C167.901 11.0431 168.282 11.6081 168.557 12.2507C168.832 12.8933 168.969 13.5825 168.969 14.3181C168.969 15.0538 168.832 15.743 168.557 16.3856C168.282 17.0282 167.901 17.5932 167.414 18.0807C166.926 18.5682 166.361 18.9494 165.719 19.2241C165.076 19.4989 164.387 19.6363 163.651 19.6363ZM163.651 18.2735C164.378 18.2735 165.041 18.0962 165.639 17.7417C166.237 17.3871 166.714 16.9107 167.068 16.3124C167.427 15.7097 167.607 15.045 167.607 14.3181C167.607 13.5913 167.427 12.9288 167.068 12.3305C166.714 11.7278 166.237 11.2491 165.639 10.8946C165.041 10.54 164.378 10.3628 163.651 10.3628C162.92 10.3628 162.255 10.54 161.657 10.8946C161.059 11.2491 160.58 11.7278 160.221 12.3305C159.866 12.9288 159.689 13.5913 159.689 14.3181C159.689 15.045 159.866 15.7075 160.221 16.3058C160.58 16.9041 161.059 17.3827 161.657 17.7417C162.255 18.0962 162.92 18.2735 163.651 18.2735Z" fill="#18181B"/>
</svg>
