<svg width="45" height="32" viewBox="0 0 45 32" fill="none" xmlns="http://www.w3.org/2000/svg">
<path d="M43.6249 11.2279C44.5353 12.1495 44.5353 13.6437 43.6249 14.5653L27.0832 31.3088C26.1727 32.2304 24.6966 32.2304 23.7861 31.3088L13.3764 20.7721C12.466 19.8505 12.466 18.3563 13.3764 17.4348L29.9181 0.69118C30.8286 -0.230395 32.3047 -0.230393 33.2152 0.691182L43.6249 11.2279Z" fill="#0284C7"/>
<path d="M30.9313 11.2279C31.8417 12.1495 31.8417 13.6437 30.9313 14.5653L14.3896 31.3088C13.4791 32.2304 12.003 32.2304 11.0925 31.3088L0.682846 20.7721C-0.227616 19.8505 -0.227615 18.3563 0.682847 17.4348L17.2245 0.69118C18.135 -0.230395 19.6111 -0.230393 20.5216 0.691182L30.9313 11.2279Z" fill="#38BDF8"/>
</svg>
