<svg width="11888" height="2000" viewBox="0 0 11888 2000" fill="none" xmlns="http://www.w3.org/2000/svg">
<path d="M3612.1 1508.59V527.092H3980.16C4055.57 527.092 4118.83 541.15 4169.95 569.266C4221.38 597.382 4260.2 636.041 4286.4 685.244C4312.92 734.127 4326.18 789.719 4326.18 852.021C4326.18 914.963 4312.92 970.875 4286.4 1019.76C4259.88 1068.64 4220.75 1107.14 4168.99 1135.26C4117.23 1163.05 4053.49 1176.95 3977.77 1176.95H3733.83V1030.78H3953.81C3997.9 1030.78 4034 1023.11 4062.11 1007.78C4090.23 992.441 4111 971.354 4124.42 944.516C4138.16 917.678 4145.02 886.847 4145.02 852.021C4145.02 817.196 4138.16 786.524 4124.42 760.006C4111 733.488 4090.07 712.88 4061.64 698.183C4033.52 683.167 3997.26 675.659 3952.85 675.659H3789.9V1508.59H3612.1Z" fill="black"/>
<path d="M4770.01 1522.97C4698.12 1522.97 4635.82 1507.15 4583.1 1475.52C4530.38 1443.89 4489.49 1399.64 4460.41 1342.77C4431.66 1285.9 4417.28 1219.44 4417.28 1143.4C4417.28 1067.36 4431.66 1000.75 4460.41 943.558C4489.49 886.367 4530.38 841.957 4583.1 810.327C4635.82 778.697 4698.12 762.882 4770.01 762.882C4841.89 762.882 4904.19 778.697 4956.91 810.327C5009.63 841.957 5050.36 886.367 5079.12 943.558C5108.19 1000.75 5122.73 1067.36 5122.73 1143.4C5122.73 1219.44 5108.19 1285.9 5079.12 1342.77C5050.36 1399.64 5009.63 1443.89 4956.91 1475.52C4904.19 1507.15 4841.89 1522.97 4770.01 1522.97ZM4770.96 1383.99C4809.94 1383.99 4842.53 1373.28 4868.73 1351.88C4894.93 1330.15 4914.42 1301.08 4927.2 1264.65C4940.3 1228.23 4946.85 1187.65 4946.85 1142.92C4946.85 1097.88 4940.3 1057.14 4927.2 1020.72C4914.42 983.974 4894.93 954.74 4868.73 933.014C4842.53 911.288 4809.94 900.425 4770.96 900.425C4731.03 900.425 4697.8 911.288 4671.28 933.014C4645.08 954.74 4625.43 983.974 4612.33 1020.72C4599.55 1057.14 4593.16 1097.88 4593.16 1142.92C4593.16 1187.65 4599.55 1228.23 4612.33 1264.65C4625.43 1301.08 4645.08 1330.15 4671.28 1351.88C4697.8 1373.28 4731.03 1383.99 4770.96 1383.99Z" fill="black"/>
<path d="M5429.97 1077.27V1508.59H5256.48V772.467H5422.3V897.55H5430.93C5447.86 856.335 5474.86 823.586 5511.92 799.304C5549.3 775.023 5595.47 762.882 5650.42 762.882C5701.22 762.882 5745.48 773.745 5783.18 795.47C5821.2 817.196 5850.59 848.667 5871.36 889.882C5892.44 931.097 5902.83 981.099 5902.51 1039.89V1508.59H5729.02V1066.72C5729.02 1017.52 5716.24 979.022 5690.68 951.225C5665.44 923.429 5630.46 909.531 5585.73 909.531C5555.37 909.531 5528.38 916.241 5504.73 929.659C5481.41 942.759 5463.04 961.769 5449.62 986.69C5436.52 1011.61 5429.97 1041.8 5429.97 1077.27Z" fill="black"/>
<path d="M6432.96 772.467V906.656H6009.78V772.467H6432.96ZM6114.26 596.104H6287.75V1287.18C6287.75 1310.5 6291.26 1328.39 6298.29 1340.85C6305.64 1352.99 6315.22 1361.3 6327.04 1365.77C6338.87 1370.25 6351.96 1372.48 6366.34 1372.48C6377.21 1372.48 6387.11 1371.68 6396.06 1370.09C6405.32 1368.49 6412.35 1367.05 6417.14 1365.77L6446.38 1501.4C6437.11 1504.6 6423.85 1508.11 6406.6 1511.94C6389.67 1515.78 6368.9 1518.01 6344.3 1518.65C6300.85 1519.93 6261.71 1513.38 6226.88 1499C6192.06 1484.31 6164.42 1461.62 6143.97 1430.95C6123.84 1400.28 6113.94 1361.94 6114.26 1315.93V596.104Z" fill="black"/>
<path d="M6877.74 1522.97C6805.85 1522.97 6743.55 1507.15 6690.84 1475.52C6638.12 1443.89 6597.22 1399.64 6568.15 1342.77C6539.39 1285.9 6525.02 1219.44 6525.02 1143.4C6525.02 1067.36 6539.39 1000.75 6568.15 943.558C6597.22 886.367 6638.12 841.957 6690.84 810.327C6743.55 778.697 6805.85 762.882 6877.74 762.882C6949.63 762.882 7011.93 778.697 7064.65 810.327C7117.37 841.957 7158.1 886.367 7186.86 943.558C7215.93 1000.75 7230.47 1067.36 7230.47 1143.4C7230.47 1219.44 7215.93 1285.9 7186.86 1342.77C7158.1 1399.64 7117.37 1443.89 7064.65 1475.52C7011.93 1507.15 6949.63 1522.97 6877.74 1522.97ZM6878.7 1383.99C6917.68 1383.99 6950.27 1373.28 6976.47 1351.88C7002.67 1330.15 7022.15 1301.08 7034.93 1264.65C7048.03 1228.23 7054.58 1187.65 7054.58 1142.92C7054.58 1097.88 7048.03 1057.14 7034.93 1020.72C7022.15 983.974 7002.67 954.74 6976.47 933.014C6950.27 911.288 6917.68 900.425 6878.7 900.425C6838.76 900.425 6805.53 911.288 6779.02 933.014C6752.82 954.74 6733.17 983.974 6720.07 1020.72C6707.29 1057.14 6700.9 1097.88 6700.9 1142.92C6700.9 1187.65 6707.29 1228.23 6720.07 1264.65C6733.17 1301.08 6752.82 1330.15 6779.02 1351.88C6805.53 1373.28 6838.76 1383.99 6878.7 1383.99Z" fill="black"/>
<path d="M8212.01 858.252H8032.77C8027.66 828.858 8018.23 802.819 8004.49 780.134C7990.76 757.131 7973.66 737.641 7953.21 721.666C7932.77 705.691 7909.44 693.71 7883.24 685.723C7857.37 677.416 7829.41 673.263 7799.38 673.263C7746.02 673.263 7698.73 686.681 7657.52 713.519C7616.3 740.037 7584.03 779.016 7560.71 830.455C7537.39 881.575 7525.73 944.037 7525.73 1017.84C7525.73 1092.92 7537.39 1156.18 7560.71 1207.62C7584.35 1258.74 7616.62 1297.4 7657.52 1323.6C7698.73 1349.48 7745.86 1362.42 7798.9 1362.42C7828.29 1362.42 7855.77 1358.59 7881.33 1350.92C7907.21 1342.93 7930.37 1331.27 7950.82 1315.93C7971.59 1300.6 7989 1281.75 8003.06 1259.38C8017.43 1237.02 8027.34 1211.46 8032.77 1182.7L8212.01 1183.66C8205.3 1230.31 8190.76 1274.08 8168.4 1314.97C8146.35 1355.87 8117.44 1391.97 8081.65 1423.28C8045.87 1454.27 8004.01 1478.56 7956.09 1496.13C7908.17 1513.38 7854.97 1522.01 7796.5 1522.01C7710.24 1522.01 7633.24 1502.04 7565.5 1462.1C7497.77 1422.17 7444.41 1364.5 7405.44 1289.09C7366.46 1213.69 7346.97 1123.28 7346.97 1017.84C7346.97 912.087 7366.62 821.669 7405.91 746.587C7445.21 671.186 7498.73 613.516 7566.46 573.579C7634.2 533.642 7710.88 513.673 7796.5 513.673C7851.13 513.673 7901.94 521.341 7948.9 536.677C7995.87 552.013 8037.72 574.538 8074.46 604.251C8111.21 633.645 8141.4 669.748 8165.04 712.561C8189 755.054 8204.66 803.618 8212.01 858.252Z" fill="black"/>
<path d="M8527.16 527.092V1508.59H8353.67V527.092H8527.16Z" fill="black"/>
<path d="M9013.15 1522.97C8941.27 1522.97 8878.97 1507.15 8826.25 1475.52C8773.53 1443.89 8732.64 1399.64 8703.56 1342.77C8674.81 1285.9 8660.43 1219.44 8660.43 1143.4C8660.43 1067.36 8674.81 1000.75 8703.56 943.558C8732.64 886.367 8773.53 841.957 8826.25 810.327C8878.97 778.697 8941.27 762.882 9013.15 762.882C9085.04 762.882 9147.34 778.697 9200.06 810.327C9252.78 841.957 9293.51 886.367 9322.27 943.558C9351.34 1000.75 9365.88 1067.36 9365.88 1143.4C9365.88 1219.44 9351.34 1285.9 9322.27 1342.77C9293.51 1399.64 9252.78 1443.89 9200.06 1475.52C9147.34 1507.15 9085.04 1522.97 9013.15 1522.97ZM9014.11 1383.99C9053.09 1383.99 9085.68 1373.28 9111.88 1351.88C9138.08 1330.15 9157.57 1301.08 9170.35 1264.65C9183.45 1228.23 9190 1187.65 9190 1142.92C9190 1097.88 9183.45 1057.14 9170.35 1020.72C9157.57 983.974 9138.08 954.74 9111.88 933.014C9085.68 911.288 9053.09 900.425 9014.11 900.425C8974.18 900.425 8940.95 911.288 8914.43 933.014C8888.23 954.74 8868.58 983.974 8855.48 1020.72C8842.7 1057.14 8836.31 1097.88 8836.31 1142.92C8836.31 1187.65 8842.7 1228.23 8855.48 1264.65C8868.58 1301.08 8888.23 1330.15 8914.43 1351.88C8940.95 1373.28 8974.18 1383.99 9014.11 1383.99Z" fill="black"/>
<path d="M9968.82 1199V772.467H10142.3V1508.59H9974.09V1377.76H9966.42C9949.81 1418.97 9922.49 1452.68 9884.47 1478.88C9846.77 1505.07 9800.28 1518.17 9745.01 1518.17C9696.76 1518.17 9654.11 1507.47 9617.05 1486.06C9580.31 1464.34 9551.55 1432.87 9530.78 1391.65C9510.02 1350.12 9499.63 1299.96 9499.63 1241.17V772.467H9673.12V1214.33C9673.12 1260.98 9685.9 1298.04 9711.46 1325.52C9737.02 1352.99 9770.57 1366.73 9812.1 1366.73C9837.66 1366.73 9862.42 1360.5 9886.38 1348.04C9910.35 1335.58 9930 1317.05 9945.33 1292.45C9960.99 1267.53 9968.82 1236.38 9968.82 1199Z" fill="black"/>
<path d="M10580.4 1521.53C10522.5 1521.53 10470.8 1506.67 10425.1 1476.96C10379.4 1447.25 10343.3 1404.11 10316.8 1347.56C10290.3 1291.01 10277 1222.32 10277 1141.49C10277 1059.7 10290.4 990.684 10317.3 934.452C10344.4 877.901 10381 835.248 10427 806.493C10473 777.419 10524.3 762.882 10580.9 762.882C10624 762.882 10659.5 770.23 10687.2 784.927C10715 799.304 10737.1 816.717 10753.4 837.165C10769.7 857.293 10782.3 876.303 10791.2 894.195H10798.4V527.092H10972.4V1508.59H10801.8V1392.61H10791.2C10782.3 1410.5 10769.4 1429.51 10752.4 1449.64C10735.5 1469.45 10713.1 1486.38 10685.3 1500.44C10657.5 1514.5 10622.6 1521.53 10580.4 1521.53ZM10628.8 1379.19C10665.5 1379.19 10696.8 1369.29 10722.7 1349.48C10748.6 1329.35 10768.2 1301.4 10781.7 1265.61C10795.1 1229.83 10801.8 1188.13 10801.8 1140.53C10801.8 1092.92 10795.1 1051.55 10781.7 1016.4C10768.6 981.258 10749.1 953.941 10723.2 934.452C10697.6 914.963 10666.2 905.218 10628.8 905.218C10590.1 905.218 10557.9 915.282 10532 935.41C10506.1 955.539 10486.6 983.335 10473.5 1018.8C10460.4 1054.26 10453.9 1094.84 10453.9 1140.53C10453.9 1186.54 10460.4 1227.59 10473.5 1263.69C10486.9 1299.48 10506.6 1327.75 10532.5 1348.52C10558.7 1368.97 10590.8 1379.19 10628.8 1379.19Z" fill="black"/>
<path d="M11366.6 1069.6V715.915H11541.5C11561.4 715.915 11580.2 720.388 11598.1 729.334C11616.3 737.961 11631 750.9 11642.2 768.153C11653.7 785.406 11659.4 806.653 11659.4 831.893C11659.4 857.133 11653.5 878.7 11641.7 896.591C11629.9 914.164 11614.6 927.583 11595.7 936.848C11577.2 946.114 11557.7 950.746 11537.2 950.746H11415V887.006H11516.1C11528.6 887.006 11540.1 882.374 11550.7 873.108C11561.2 863.843 11566.5 850.104 11566.5 831.893C11566.5 812.723 11561.2 799.304 11550.7 791.636C11540.1 783.968 11529.1 780.134 11517.6 780.134H11453.8V1069.6H11366.6ZM11588.5 905.218L11671.9 1069.6H11576.1L11497 905.218H11588.5ZM11504.2 1280.47C11451.1 1280.47 11401.5 1270.56 11355.1 1250.75C11308.8 1230.95 11268.1 1203.47 11232.9 1168.32C11197.8 1133.18 11170.3 1092.44 11150.5 1046.12C11130.7 999.789 11120.8 950.107 11120.8 897.071C11120.8 844.034 11130.7 794.352 11150.5 748.025C11170.3 701.698 11197.8 660.962 11232.9 625.817C11268.1 590.672 11308.8 563.196 11355.1 543.387C11401.5 523.578 11451.1 513.673 11504.2 513.673C11557.2 513.673 11606.9 523.578 11653.2 543.387C11699.5 563.196 11740.3 590.672 11775.4 625.817C11810.6 660.962 11838 701.698 11857.9 748.025C11877.7 794.352 11887.6 844.034 11887.6 897.071C11887.6 950.107 11877.7 999.789 11857.9 1046.12C11838 1092.44 11810.6 1133.18 11775.4 1168.32C11740.3 1203.47 11699.5 1230.95 11653.2 1250.75C11606.9 1270.56 11557.2 1280.47 11504.2 1280.47ZM11504.2 1182.22C11556.6 1182.22 11604.3 1169.44 11647.5 1143.88C11690.6 1118.32 11724.9 1083.98 11750.5 1040.84C11776.4 997.393 11789.3 949.468 11789.3 897.071C11789.3 844.673 11776.4 796.908 11750.5 753.776C11724.9 710.324 11690.6 675.818 11647.5 650.259C11604.3 624.699 11556.6 611.919 11504.2 611.919C11451.5 611.919 11403.5 624.699 11360.4 650.259C11317.3 675.818 11282.8 710.324 11256.9 753.776C11231.3 796.908 11218.5 844.673 11218.5 897.071C11218.5 949.468 11231.3 997.233 11256.9 1040.37C11282.8 1083.5 11317.3 1118 11360.4 1143.88C11403.5 1169.44 11451.5 1182.22 11504.2 1182.22Z" fill="black"/>
<path d="M1806.41 83.7394C1906.8 -16.6482 2069.56 -16.6483 2169.95 83.7394L2710.38 624.173C2810.77 724.56 2810.77 887.321 2710.38 987.709L1773.38 1924.71C1672.99 2025.1 1510.23 2025.1 1409.84 1924.71L869.411 1384.28C769.024 1283.89 769.024 1121.13 869.411 1020.74L1806.41 83.7394Z" fill="url(#paint0_linear_10027_146)"/>
<path d="M1012.29 75.2908C1112.68 -25.0969 1275.44 -25.0969 1375.83 75.2907L1916.26 615.724C2016.65 716.112 2016.65 878.872 1916.26 979.26L979.26 1916.26C878.872 2016.65 716.112 2016.65 615.724 1916.26L75.2907 1375.83C-25.0969 1275.44 -25.0969 1112.68 75.2908 1012.29L1012.29 75.2908Z" fill="url(#paint1_linear_10027_146)"/>
<defs>
<linearGradient id="paint0_linear_10027_146" x1="2165.74" y1="673.147" x2="1426.7" y2="833.809" gradientUnits="userSpaceOnUse">
<stop stop-color="#027AB8"/>
<stop offset="1" stop-color="#025783"/>
</linearGradient>
<linearGradient id="paint1_linear_10027_146" x1="1105.37" y1="94.7653" x2="1201.76" y2="898.074" gradientUnits="userSpaceOnUse">
<stop stop-color="#59CCFF"/>
<stop offset="1" stop-color="#07B3FF"/>
</linearGradient>
</defs>
</svg>
